<?xml version="1.0" encoding="UTF-8" standalone="no"?>
<!DOCTYPE svg PUBLIC "-//W3C//DTD SVG 1.1//EN" "http://www.w3.org/Graphics/SVG/1.1/DTD/svg11.dtd">
<svg xmlns="http://www.w3.org/2000/svg" version="1.1" viewBox="0 0 699 755">
<path stroke="#808080" stroke-width="2.00" fill="none" stroke-linecap="butt" vector-effect="non-scaling-stroke" d="
  M 277.26 195.75
  L 277.37 205.40
  A 0.53 0.53 2.3 0 0 277.86 205.93
  C 287.85 206.60 303.63 207.44 308.96 216.81
  C 314.01 225.70 313.80 240.06 313.82 250.31
  Q 314.03 377.53 313.86 504.75
  Q 313.84 515.29 312.80 525.75
  C 310.69 547.05 295.30 548.82 277.98 549.49
  A 0.74 0.73 -1.2 0 0 277.27 550.22
  L 277.29 558.50"
/>
<path fill="#000000" d="
  M 277.26 195.75
  L 277.37 205.40
  A 0.53 0.53 2.3 0 0 277.86 205.93
  C 287.85 206.60 303.63 207.44 308.96 216.81
  C 314.01 225.70 313.80 240.06 313.82 250.31
  Q 314.03 377.53 313.86 504.75
  Q 313.84 515.29 312.80 525.75
  C 310.69 547.05 295.30 548.82 277.98 549.49
  A 0.74 0.73 -1.2 0 0 277.27 550.22
  L 277.29 558.50
  C 222.30 559.58 110.80 562.09 96.80 486.98
  Q 92.55 464.18 99.22 441.99
  C 114.21 392.05 170.79 373.80 216.52 370.13
  C 216.68 370.12 217.14 369.82 217.13 369.65
  A 0.43 0.29 1.3 0 0 216.72 369.36
  C 176.84 367.55 127.50 357.23 111.87 314.82
  Q 109.86 309.36 107.05 295.44
  Q 102.14 271.18 97.20 246.91
  C 95.35 237.82 91.24 223.00 83.74 218.28
  C 75.79 213.28 65.53 215.60 58.99 221.95
  A 0.49 0.47 -44.2 0 1 58.30 221.96
  L 52.46 215.81
  A 0.56 0.52 -44.3 0 1 52.50 215.07
  Q 71.47 195.83 99.50 190.52
  C 125.20 185.64 157.12 186.14 180.72 198.50
  C 202.57 209.95 206.37 231.09 209.78 253.31
  Q 213.46 277.31 217.15 301.32
  C 220.07 320.32 226.47 359.46 247.85 366.39
  C 255.87 368.99 269.34 367.72 279.35 367.81
  A 0.88 0.87 0.3 0 0 280.24 366.94
  Q 280.29 307.78 280.22 247.95
  C 280.21 234.76 280.76 214.05 265.07 208.93
  Q 255.12 205.68 244.57 205.59
  A 0.83 0.82 0.4 0 1 243.75 204.77
  L 243.77 195.77
  A 0.82 0.81 2.3 0 1 244.65 194.96
  Q 261.48 196.35 277.26 195.75
  Z
  M 206.90 503.72
  C 210.63 523.63 219.14 543.19 241.26 547.76
  C 255.14 550.64 274.65 550.23 277.87 532.65
  Q 279.97 521.18 280.01 513.18
  Q 280.31 446.07 280.21 378.92
  A 0.53 0.52 1.1 0 0 279.70 378.40
  C 250.67 377.11 225.44 380.34 212.37 408.72
  C 208.13 417.95 205.82 429.28 204.62 439.81
  Q 200.96 471.94 206.90 503.72
  Z"
/>
<path fill="#ffffff" d="
  M 277.29 558.50
  L 277.27 550.22
  A 0.74 0.73 -1.2 0 1 277.98 549.49
  C 295.30 548.82 310.69 547.05 312.80 525.75
  Q 313.84 515.29 313.86 504.75
  Q 314.03 377.53 313.82 250.31
  C 313.80 240.06 314.01 225.70 308.96 216.81
  C 303.63 207.44 287.85 206.60 277.86 205.93
  A 0.53 0.53 2.3 0 1 277.37 205.40
  L 277.26 195.75
  Q 355.02 198.12 432.81 196.23
  Q 466.57 195.41 498.43 198.84
  C 544.28 203.78 597.24 221.01 603.04 275.10
  C 605.43 297.37 600.12 321.00 586.31 338.92
  C 562.22 370.17 520.24 380.70 482.46 385.08
  A 0.56 0.40 -10.9 0 0 481.94 385.63
  C 482.03 385.89 483.31 385.70 483.69 385.72
  C 523.54 388.06 571.09 398.00 586.85 440.18
  Q 589.02 446.01 591.71 459.54
  Q 596.58 483.98 601.75 508.34
  C 603.71 517.56 607.38 532.89 616.26 537.41
  C 624.09 541.41 633.65 539.09 639.86 533.05
  A 0.53 0.50 -44.2 0 1 640.59 533.04
  L 646.44 539.06
  A 0.56 0.51 -44.6 0 1 646.40 539.81
  Q 628.45 558.08 603.42 563.58
  C 575.29 569.75 527.76 570.46 505.78 547.15
  C 495.60 536.36 491.62 521.69 489.59 507.27
  Q 486.03 482.08 482.31 456.91
  Q 478.67 432.34 471.81 412.98
  C 467.90 401.95 459.96 389.89 447.13 387.68
  C 440.51 386.53 427.97 387.20 419.03 387.29
  A 0.52 0.51 89.4 0 0 418.53 387.81
  Q 418.40 481.61 418.56 513.81
  Q 418.60 522.41 420.92 531.36
  C 425.28 548.20 440.72 548.67 454.34 549.59
  A 0.57 0.53 2.3 0 1 454.87 550.12
  L 454.83 559.48
  A 0.52 0.48 1.1 0 1 454.29 559.96
  Q 431.66 558.84 399.07 558.65
  C 354.53 558.39 315.63 557.97 278.31 559.97
  A 1.22 0.73 -13.4 0 1 277.42 559.69
  Q 277.02 559.23 277.29 558.50
  Z
  M 435.24 207.30
  C 428.43 208.82 423.24 212.77 421.46 219.75
  C 419.04 229.21 418.54 238.17 418.53 249.22
  Q 418.46 312.72 418.52 376.17
  A 0.53 0.52 1.8 0 0 419.02 376.69
  Q 435.85 377.51 449.73 375.22
  C 479.41 370.33 490.56 343.95 493.88 317.33
  C 497.25 290.42 497.74 235.53 474.91 215.70
  C 464.26 206.45 448.67 204.31 435.24 207.30
  Z"
/>
</svg>
